<?xml version="1.0" standalone="no"?><!DOCTYPE svg PUBLIC "-//W3C//DTD SVG 1.1//EN" "http://www.w3.org/Graphics/SVG/1.1/DTD/svg11.dtd"><svg
        class="icon" viewBox="0 0 1039 1024" version="1.1" xmlns="http://www.w3.org/2000/svg"
        xmlns:xlink="http://www.w3.org/1999/xlink" width="202.9296875" height="200"><defs><style type="text/css">@font-face { font-family: feedback-iconfont; src: url("//at.alicdn.com/t/font_1031158_1uhr8ri0pk5.eot?#iefix") format("embedded-opentype"), url("//at.alicdn.com/t/font_1031158_1uhr8ri0pk5.woff2") format("woff2"), url("//at.alicdn.com/t/font_1031158_1uhr8ri0pk5.woff") format("woff"), url("//at.alicdn.com/t/font_1031158_1uhr8ri0pk5.ttf") format("truetype"), url("//at.alicdn.com/t/font_1031158_1uhr8ri0pk5.svg#iconfont") format("svg"); }
</style></defs><path d="M827.299435 250.696798h-77.137476v-82.922787c0-7.713748-15.427495-21.212806-38.568739-21.212806h-347.118644c-23.141243 0-38.568738 13.499058-38.568738 21.212806v82.922787h-77.137476v-82.922787c0-53.996234 52.067797-98.350282 115.706214-98.350282h347.118644c63.638418 0 115.706215 44.354049 115.706215 98.350282v82.922787z" fill="#4081C3"></path><path d="M1000.858757 310.478343h-925.649717c-21.212806 0-38.568738-17.355932-38.568739-38.568738s17.355932-38.568738 38.568739-38.568739h925.649717c21.212806 0 38.568738 17.355932 38.568738 38.568739s-17.355932 38.568738-38.568738 38.568738z" fill="#4081C3"></path><path d="M750.161959 946.862524h-424.256121c-84.851224 0-154.274953-69.423729-154.274953-154.274953v-520.677966c0-21.212806 17.355932-38.568738 38.568738-38.568739h655.66855c21.212806 0 38.568738 17.355932 38.568738 38.568739v520.677966c0 84.851224-69.423729 154.274953-154.274952 154.274953z m-501.393597-636.384181v482.109228c0 42.425612 34.711864 77.137476 77.137476 77.137476h424.256121c42.425612 0 77.137476-34.711864 77.137476-77.137476v-482.109228h-578.531073z" fill="#4081C3"></path><path d="M441.612053 821.514124c-21.212806 0-38.568738-17.355932-38.568738-38.568738v-376.045198c0-21.212806 17.355932-38.568738 38.568738-38.568738s38.568738 17.355932 38.568738 38.568738v376.045198c0 21.212806-17.355932 38.568738-38.568738 38.568738zM634.455744 821.514124c-21.212806 0-38.568738-17.355932-38.568738-38.568738v-376.045198c0-21.212806 17.355932-38.568738 38.568738-38.568738s38.568738 17.355932 38.568738 38.568738v376.045198c0 21.212806-17.355932 38.568738-38.568738 38.568738z" fill="#DD8911"></path></svg>