<?xml version="1.0" standalone="no"?><!DOCTYPE svg PUBLIC "-//W3C//DTD SVG 1.1//EN" "http://www.w3.org/Graphics/SVG/1.1/DTD/svg11.dtd"><svg t="1628317492503" class="icon" viewBox="0 0 1024 1024" version="1.1" xmlns="http://www.w3.org/2000/svg" p-id="7952" xmlns:xlink="http://www.w3.org/1999/xlink" width="200" height="200"><defs><style type="text/css"></style></defs><path d="M496.36352 705.4848v48.07168h-182.272a124.55936 124.55936 0 0 1 17.76128-51.66592q14.80192-24.40704 58.4704-64.7424 35.15904-32.60416 43.11552-44.20608a56.77568 56.77568 0 0 0 10.752-31.68256 35.9168 35.9168 0 0 0-9.344-26.624 39.84384 39.84384 0 0 0-51.712 0.4608q-9.62048 9.75872-11.10528 32.41472l-51.82464-5.1456q4.608-42.73152 29.05088-61.3376a97.86368 97.86368 0 0 1 61.06624-18.60096q40.15104 0 63.09888 21.55008a70.53312 70.53312 0 0 1 22.94272 53.59104 92.9024 92.9024 0 0 1-6.56896 34.71872 140.96896 140.96896 0 0 1-20.81792 34.5344 332.22144 332.22144 0 0 1-34.048 34.44736q-24.61184 22.47168-31.1808 29.83936a89.1648 89.1648 0 0 0-10.63936 14.36672h103.25504z m33.28-23.552l50.36032-6.0928a47.3088 47.3088 0 0 0 12.9536 29.2864 35.50208 35.50208 0 0 0 25.53856 10.1376 35.1488 35.1488 0 0 0 27.1104-12.15488 47.00672 47.00672 0 0 0 11.008-32.768 43.8272 43.8272 0 0 0-10.5472-30.94016 33.69472 33.69472 0 0 0-25.72288-11.42272 91.02848 91.02848 0 0 0-23.86944 3.87072l5.73952-42.18368q21.08928 0.55296 32.19456-9.1136a32.37888 32.37888 0 0 0 11.10016-25.69728 27.96032 27.96032 0 0 0-29.78816-29.83936 31.40096 31.40096 0 0 0-22.7584 9.216 43.1616 43.1616 0 0 0-11.47392 26.89024L533.5552 552.96a106.37312 106.37312 0 0 1 15.08352-39.13728 67.97824 67.97824 0 0 1 28.12416-23.04 94.85312 94.85312 0 0 1 40.448-8.38144q38.2976 0 61.44 24.31488a63.3344 63.3344 0 0 1 19.05664 44.94336q0 35.54304-39.04512 56.7296a63.19104 63.19104 0 0 1 37.28896 22.28736 64.46592 64.46592 0 0 1 13.96736 41.80992 80.92672 80.92672 0 0 1-26.0864 60.60032 97.792 97.792 0 0 1-126.01344 3.95776 82.75456 82.75456 0 0 1-28.14976-55.13728z" fill="#F79C42" p-id="7953"></path><path d="M835.97824 173.69088H726.016V117.76h-64.93184v55.93088H361.50784V117.76H296.57088v55.93088h-108.544A105.86624 105.86624 0 0 0 81.92 279.08096v521.77408A105.86112 105.86112 0 0 0 188.02176 906.24h647.95648A105.86112 105.86112 0 0 0 942.08 800.85504V279.08096a105.87136 105.87136 0 0 0-106.10176-105.39008zM188.02176 238.19264h108.544v59.47904h64.94208V238.19264h299.57632v59.47904H726.016V238.19264h109.95712a41.07264 41.07264 0 0 1 41.1648 40.88832v55.808H146.85696v-55.808a41.07264 41.07264 0 0 1 41.1648-40.88832zM835.97824 841.728H188.02176a41.07264 41.07264 0 0 1-41.1648-40.8832V399.40608h730.28608v401.44896a41.07264 41.07264 0 0 1-41.1648 40.87296z" fill="#5288F5" p-id="7954"></path></svg>