<?xml version="1.0" standalone="no"?><!DOCTYPE svg PUBLIC "-//W3C//DTD SVG 1.1//EN" "http://www.w3.org/Graphics/SVG/1.1/DTD/svg11.dtd"><svg t="1628437472394" class="icon" viewBox="0 0 1024 1024" version="1.1" xmlns="http://www.w3.org/2000/svg" p-id="5180" xmlns:xlink="http://www.w3.org/1999/xlink" width="200" height="200"><defs><style type="text/css"></style></defs><path d="M832 981.333333H192a85.333333 85.333333 0 0 1-85.333333-85.333333V128a85.333333 85.333333 0 0 1 85.333333-85.333333h640a85.333333 85.333333 0 0 1 85.333333 85.333333v768a85.333333 85.333333 0 0 1-85.333333 85.333333z m21.333333-832a42.666667 42.666667 0 0 0-42.666666-42.666666H213.333333a42.666667 42.666667 0 0 0-42.666666 42.666666v725.333334a42.666667 42.666667 0 0 0 42.666666 42.666666h597.333334a42.666667 42.666667 0 0 0 42.666666-42.666666V149.333333z" fill="#5B8DF0" p-id="5181"></path><path d="M736 554.666667h-341.333333a32 32 0 0 1 0-64h341.333333a32 32 0 0 1 0 64z m0-192h-341.333333a32 32 0 0 1 0-64h341.333333a32 32 0 0 1 0 64z m-448 384a32 32 0 1 1 32-32 32 32 0 0 1-32 32z m0-192a32 32 0 1 1 32-32 32 32 0 0 1-32 32z m0-192a32 32 0 1 1 32-32 32 32 0 0 1-32 32z m106.666667 320h341.333333a32 32 0 0 1 0 64h-341.333333a32 32 0 0 1 0-64z" fill="#EB9E53" p-id="5182"></path></svg>