<?xml version="1.0" standalone="no"?><!DOCTYPE svg PUBLIC "-//W3C//DTD SVG 1.1//EN" "http://www.w3.org/Graphics/SVG/1.1/DTD/svg11.dtd">
<svg class="icon" viewBox="0 0 1024 1024" version="1.1" xmlns="http://www.w3.org/2000/svg"
     width="200" height="200"><defs><style type="text/css">@font-face { font-family: feedback-iconfont; src: url("//at.alicdn.com/t/font_1031158_1uhr8ri0pk5.eot?#iefix") format("embedded-opentype"), url("//at.alicdn.com/t/font_1031158_1uhr8ri0pk5.woff2") format("woff2"), url("//at.alicdn.com/t/font_1031158_1uhr8ri0pk5.woff") format("woff"), url("//at.alicdn.com/t/font_1031158_1uhr8ri0pk5.ttf") format("truetype"), url("//at.alicdn.com/t/font_1031158_1uhr8ri0pk5.svg#iconfont") format("svg"); }
</style></defs><path d="M770.1504 846.1312H336.128c-23.0912 0-41.8304-18.7392-41.8304-41.8304V262.4512c0-23.0912 18.7392-41.8304 41.8304-41.8304h433.9712c23.0912 0 41.8304 18.7392 41.8304 41.8304v541.8496c0.0512 23.0912-18.688 41.8304-41.7792 41.8304z" fill="#88B8FB"></path><path d="M731.4944 77.1072H299.7248c-67.2256 0-121.856 54.6816-121.856 121.856V815.104c0 67.2256 54.6816 121.856 121.856 121.856h431.7696c67.2256 0 121.9072-54.6816 121.9072-121.856V199.0144c0-67.2256-54.6816-121.9072-121.9072-121.9072z m60.4672 738.048c0 33.3312-27.136 60.416-60.4672 60.416H299.7248c-33.3312 0-60.416-27.136-60.416-60.416V199.0144c0-33.3312 27.136-60.416 60.416-60.416h431.7696c33.3312 0 60.4672 27.136 60.4672 60.416v616.1408z" fill="#5D5D66"></path><path d="M670.5664 168.0384H360.704c-39.9872 0-72.5504 32.5632-72.5504 72.5504v438.272c0 39.9872 32.5632 72.5504 72.5504 72.5504h309.8624c39.9872 0 72.5504-32.5632 72.5504-72.5504v-438.272c0-40.0384-32.5632-72.5504-72.5504-72.5504z m11.1104 510.7712c0 6.144-4.9664 11.1104-11.1104 11.1104H360.704c-6.144 0-11.1104-4.9664-11.1104-11.1104v-438.272c0-6.144 4.9664-11.1104 11.1104-11.1104h309.8624c6.144 0 11.1104 4.9664 11.1104 11.1104v438.272z" fill="#5D5D66"></path><path d="M471.4496 817.8688a44.1856 42.0864 0 1 0 88.3712 0 44.1856 42.0864 0 1 0-88.3712 0Z" fill="#5D5D66"></path></svg>