<?xml version="1.0" standalone="no"?><!DOCTYPE svg PUBLIC "-//W3C//DTD SVG 1.1//EN" "http://www.w3.org/Graphics/SVG/1.1/DTD/svg11.dtd"><svg
        class="icon" viewBox="0 0 1024 1024" version="1.1" xmlns="http://www.w3.org/2000/svg" xmlns:xlink="http://www.w3.org/1999/xlink" width="200" height="200"><defs><style type="text/css">@font-face { font-family: feedback-iconfont; src: url("//at.alicdn.com/t/font_1031158_1uhr8ri0pk5.eot?#iefix") format("embedded-opentype"), url("//at.alicdn.com/t/font_1031158_1uhr8ri0pk5.woff2") format("woff2"), url("//at.alicdn.com/t/font_1031158_1uhr8ri0pk5.woff") format("woff"), url("//at.alicdn.com/t/font_1031158_1uhr8ri0pk5.ttf") format("truetype"), url("//at.alicdn.com/t/font_1031158_1uhr8ri0pk5.svg#iconfont") format("svg"); }
</style></defs><path d="M315.7504 636.3136s488.8576-228.352 539.0336-252.928c50.176-24.5248 44.5952-101.0176 32.4608-143.4112-41.6256 19.456-186.9824 102.1952-195.9936 106.7008-32.6656 16.4352-74.752 30.8736-116.9408 6.7072-52.224-29.952-220.3136-117.0944-220.3136-117.0944l-41.1648 23.552L499.0464 415.232c10.5984 8.8576 9.216 25.5488-2.6624 32.512l-171.008 100.352a50.51392 50.51392 0 0 1-39.0144 5.12l-78.4384-21.76-42.5472 22.9376 150.3744 81.92z" fill="#80B7F9"></path><path d="M113.1008 565.4528l152.4224 82.0736c13.6192 7.3216 28.8256 11.008 43.9808 11.008 13.2096 0 26.4704-2.816 38.7072-8.448l526.8992-242.2272c29.4912-13.568 51.5072-37.9392 62.0032-68.608s8.0384-63.4368-6.9632-92.2112c-14.6944-28.2112-39.5776-48.7936-70.0416-58.0096-30.464-9.216-62.5664-5.888-90.4704 9.4208l-131.9936 72.448c-1.6384 0.8704-3.584 0.9728-5.2736 0.1536L364.3392 144.3328a53.03808 53.03808 0 0 0-48.4352 1.6384L244.3264 185.856a52.96128 52.96128 0 0 0-27.0336 41.8304 52.8896 52.8896 0 0 0 19.6096 45.7728l160.8192 129.1776-106.1888 58.3168-87.296-19.712c-11.8784-2.7136-24.3712-1.024-35.1232 4.6592l-55.6544 29.44c-16.6912 8.8576-27.136 26.0608-27.1872 44.9536s10.1888 36.1984 26.8288 45.1584z m81.3568-63.4368l87.3984 19.7632c12.1344 2.7648 24.8832 0.9728 35.84-5.0688L440.9344 449.024a51.2 51.2 0 0 0 26.3168-40.2944 50.86208 50.86208 0 0 0-18.8928-44.2368L285.184 233.4208l56.832-31.6416 264.0896 124.8256c19.4048 9.1648 42.24 8.4992 61.0816-1.8432l131.9936-72.448c13.2608-7.2704 28.5696-8.9088 43.0592-4.5056s26.368 14.1824 33.3312 27.648c7.168 13.6704 8.3456 29.2864 3.328 43.9296-5.0176 14.6432-15.4624 26.2144-29.5424 32.6656L322.56 594.2784c-8.9088 4.096-19.3024 3.7376-27.9552-0.8704l-135.2704-72.8576 35.1232-18.5344zM912.6912 700.9792h-284.7232c-16.9472 0-30.72 13.7728-30.72 30.72s13.7728 30.72 30.72 30.72h284.7232c16.9472 0 30.72-13.7728 30.72-30.72s-13.7216-30.72-30.72-30.72zM912.6912 813.6704H128.9728c-16.9472 0-30.72 13.7728-30.72 30.72s13.7728 30.72 30.72 30.72h783.7696c16.9472 0 30.72-13.7728 30.72-30.72s-13.7728-30.72-30.7712-30.72z" fill="#5D5D66"></path></svg>