<?xml version="1.0" standalone="no"?><!DOCTYPE svg PUBLIC "-//W3C//DTD SVG 1.1//EN" "http://www.w3.org/Graphics/SVG/1.1/DTD/svg11.dtd"><svg
        class="icon" viewBox="0 0 1024 1024" version="1.1" xmlns="http://www.w3.org/2000/svg"
        xmlns:xlink="http://www.w3.org/1999/xlink" width="200" height="200"><defs><style type="text/css">@font-face { font-family: feedback-iconfont; src: url("//at.alicdn.com/t/font_1031158_1uhr8ri0pk5.eot?#iefix") format("embedded-opentype"), url("//at.alicdn.com/t/font_1031158_1uhr8ri0pk5.woff2") format("woff2"), url("//at.alicdn.com/t/font_1031158_1uhr8ri0pk5.woff") format("woff"), url("//at.alicdn.com/t/font_1031158_1uhr8ri0pk5.ttf") format("truetype"), url("//at.alicdn.com/t/font_1031158_1uhr8ri0pk5.svg#iconfont") format("svg"); }
</style></defs><path d="M832.3584 738.0992H275.2c-28.5696 0-51.7632-23.1424-51.7632-51.7632V327.7824c0-28.5696 23.1424-51.7632 51.7632-51.7632h557.1584c28.5696 0 51.7632 23.1424 51.7632 51.7632v358.6048c-0.0512 28.5696-23.1936 51.712-51.7632 51.712z" fill="#A5ADF6"></path><path d="M840.3456 147.712H193.28c-50.7904 0-92.16 41.3184-92.16 92.16v427.7248c0 50.7904 41.3696 92.16 92.16 92.16h292.3008c0 10.496 0.1536 23.7568 0.4096 40.704H378.0608c-16.9472 0-30.72 13.7728-30.72 30.72s13.7728 30.72 30.72 30.72h277.4528c16.9472 0 30.72-13.7728 30.72-30.72s-13.7728-30.72-30.72-30.72h-108.032c-0.2048-14.848-0.3072-29.184-0.3072-40.704h293.1712c50.7904 0 92.16-41.3696 92.16-92.16V239.872c0-50.7904-41.3696-92.16-92.16-92.16z m-647.0656 61.44h647.0656c16.9472 0 30.72 13.7728 30.72 30.72v340.8896H162.56V239.872c0-16.9472 13.7728-30.72 30.72-30.72z m647.0656 489.1648H193.28c-16.9472 0-30.72-13.7728-30.72-30.72v-25.344h708.5056v25.344c0 16.9472-13.7728 30.72-30.72 30.72z" fill="#5D5D66"></path></svg>