<?xml version="1.0" standalone="no"?><!DOCTYPE svg PUBLIC "-//W3C//DTD SVG 1.1//EN" "http://www.w3.org/Graphics/SVG/1.1/DTD/svg11.dtd">
<svg class="icon" viewBox="0 0 1024 1024" version="1.1" xmlns="http://www.w3.org/2000/svg"
     width="200" height="200"><defs><style type="text/css"></style></defs><path d="M812.6 951H342.3c-33 0-60-27-60-60V187.6c0-33 27-60 60-60h423.9c33 0 60 27 60 60v749.8c0.1 7.5-6.1 13.6-13.6 13.6z" fill="#FF5978"></path><path d="M835.6 986.6H189.9c-17.6 0-32-14.4-32-32V71.9c0-17.6 14.4-32 32-32h645.7c17.6 0 32 14.4 32 32v882.7c0 17.6-14.3 32-32 32z m-637.7-40h629.7V79.9H197.9v866.7z" fill="#333333"></path><path d="M512.9 401c-101.7 0-199.4-37.3-275.1-104.9-8.2-7.4-9-20-1.6-28.2s20-9 28.2-1.6C332.8 327.4 421 361 512.9 361c92.8 0 181.7-34.3 250.4-96.5 8.2-7.4 20.8-6.8 28.3 1.4 7.4 8.2 6.8 20.8-1.4 28.2C714 363.1 615.6 401 512.9 401z" fill="#333333"></path><path d="M512.8 708.5m-201.5 0a201.5 201.5 0 1 0 403 0 201.5 201.5 0 1 0-403 0Z" fill="#FFFFFF"></path><path d="M512.8 930.1c-59.2 0-114.8-23-156.7-64.9-41.8-41.8-64.9-97.5-64.9-156.7 0-59.2 23-114.8 64.9-156.7C398 510 453.6 487 512.8 487s114.8 23 156.7 64.9c41.8 41.8 64.9 97.5 64.9 156.7 0 59.2-23 114.8-64.9 156.7-41.9 41.7-97.5 64.8-156.7 64.8z m0-403.1c-100.1 0-181.5 81.4-181.5 181.5S412.7 890 512.8 890s181.5-81.4 181.5-181.5S612.9 527 512.8 527z" fill="#333333"></path><path d="M417.514 708.56l95.247-95.245 95.246 95.246-95.246 95.246z" fill="#FFFFFF"></path><path d="M512.8 817.9L403.4 708.5l109.4-109.4 109.4 109.4-109.4 109.4z m-81.1-109.4l81.1 81.1 81.1-81.1-81.1-81.1-81.1 81.1z" fill="#333333"></path></svg>